<svg width="252" height="65" viewBox="0 0 252 65" fill="none" xmlns="http://www.w3.org/2000/svg">
<circle cx="32.5" cy="32.5" r="32.5" fill="#038927"/>
<path d="M34.132 43H32.332C32.02 43 31.912 42.832 32.008 42.496L38.74 20.356C38.836 20.02 39.064 19.852 39.424 19.852H42.016C42.376 19.852 42.604 20.02 42.7 20.356L49.432 42.496C49.528 42.832 49.42 43 49.108 43H47.272C47.008 43 46.84 42.832 46.768 42.496L45.076 37.24H36.364L34.672 42.496C34.576 42.832 34.396 43 34.132 43ZM40.648 22.552L36.94 35.008H44.5L40.792 22.552H40.648ZM65.0934 43H53.7894C53.4534 43 53.2854 42.832 53.2854 42.496V20.356C53.2854 20.02 53.4534 19.852 53.7894 19.852H65.0934C65.4294 19.852 65.5974 20.02 65.5974 20.356V21.652C65.5974 21.988 65.4294 22.156 65.0934 22.156H56.2734C56.0334 22.156 55.9134 22.264 55.9134 22.48V29.752C55.9134 29.968 56.0334 30.076 56.2734 30.076H63.9774C64.3134 30.076 64.4814 30.244 64.4814 30.58V31.876C64.4814 32.212 64.3134 32.38 63.9774 32.38H56.2734C56.0334 32.38 55.9134 32.488 55.9134 32.704V40.372C55.9134 40.588 56.0334 40.696 56.2734 40.696H65.0934C65.4294 40.696 65.5974 40.864 65.5974 41.2V42.496C65.5974 42.832 65.4294 43 65.0934 43Z" fill="white"/>
<path d="M74.516 39.94H79.592C81.32 39.94 82.184 39.052 82.184 37.276V25.576C82.184 23.8 81.32 22.912 79.592 22.912H74.516C74.252 22.912 74.12 23.032 74.12 23.272V39.544C74.12 39.808 74.252 39.94 74.516 39.94ZM70.628 42.388V20.464C70.628 20.056 70.832 19.852 71.24 19.852H80.096C81.848 19.852 83.216 20.344 84.2 21.328C85.208 22.288 85.712 23.656 85.712 25.432V37.42C85.712 39.172 85.208 40.54 84.2 41.524C83.216 42.508 81.848 43 80.096 43H71.24C70.832 43 70.628 42.796 70.628 42.388ZM91.8568 43H89.2648C88.9288 43 88.8088 42.796 88.9048 42.388L95.1688 20.464C95.2888 20.056 95.5768 19.852 96.0328 19.852H99.6328C100.113 19.852 100.401 20.056 100.497 20.464L106.761 42.388C106.857 42.796 106.725 43 106.365 43H103.809C103.593 43 103.437 42.964 103.341 42.892C103.269 42.796 103.209 42.628 103.161 42.388L101.793 37.708H93.8728L92.5048 42.388C92.4088 42.796 92.1928 43 91.8568 43ZM97.7608 23.308L94.5928 34.828H101.109L97.9048 23.308H97.7608ZM109.887 37.384V36.448C109.887 36.04 110.091 35.836 110.499 35.836H112.803C113.211 35.836 113.415 36.04 113.415 36.448V37.096C113.415 38.104 113.631 38.836 114.063 39.292C114.519 39.724 115.263 39.94 116.295 39.94H118.779C119.811 39.94 120.555 39.712 121.011 39.256C121.467 38.776 121.695 38.008 121.695 36.952V36.124C121.695 35.356 121.395 34.756 120.795 34.324C120.219 33.868 119.499 33.58 118.635 33.46C117.771 33.316 116.823 33.124 115.791 32.884C114.759 32.644 113.811 32.368 112.947 32.056C112.083 31.744 111.351 31.156 110.751 30.292C110.175 29.428 109.887 28.324 109.887 26.98V25.468C109.887 23.716 110.379 22.348 111.363 21.364C112.371 20.356 113.751 19.852 115.503 19.852H119.319C121.095 19.852 122.475 20.356 123.459 21.364C124.467 22.348 124.971 23.716 124.971 25.468V26.26C124.971 26.668 124.767 26.872 124.359 26.872H122.055C121.647 26.872 121.443 26.668 121.443 26.26V25.792C121.443 24.76 121.215 24.028 120.759 23.596C120.327 23.14 119.595 22.912 118.563 22.912H116.295C115.263 22.912 114.519 23.152 114.063 23.632C113.631 24.088 113.415 24.88 113.415 26.008V27.124C113.415 28.204 114.195 28.936 115.755 29.32C116.451 29.488 117.207 29.632 118.023 29.752C118.863 29.872 119.703 30.052 120.543 30.292C121.383 30.532 122.151 30.856 122.847 31.264C123.543 31.648 124.107 32.248 124.539 33.064C124.971 33.856 125.187 34.828 125.187 35.98V37.384C125.187 39.136 124.683 40.516 123.675 41.524C122.691 42.508 121.323 43 119.571 43H115.539C113.787 43 112.407 42.508 111.399 41.524C110.391 40.516 109.887 39.136 109.887 37.384ZM132.922 43H130.654C130.246 43 130.042 42.796 130.042 42.388V20.464C130.042 20.056 130.246 19.852 130.654 19.852H132.922C133.33 19.852 133.534 20.056 133.534 20.464V29.464C133.534 29.704 133.678 29.824 133.966 29.824H141.562C141.802 29.824 141.922 29.704 141.922 29.464V20.464C141.922 20.056 142.126 19.852 142.534 19.852H144.838C145.246 19.852 145.45 20.056 145.45 20.464V42.388C145.45 42.796 145.246 43 144.838 43H142.534C142.126 43 141.922 42.796 141.922 42.388V33.28C141.922 33.04 141.802 32.92 141.562 32.92H133.966C133.678 32.92 133.534 33.04 133.534 33.28V42.388C133.534 42.796 133.33 43 132.922 43Z" fill="#038927"/>
<path d="M168.94 43H164.404C162.844 43 161.608 42.544 160.696 41.632C159.808 40.72 159.364 39.472 159.364 37.888V24.964C159.364 23.38 159.808 22.132 160.696 21.22C161.608 20.308 162.844 19.852 164.404 19.852H168.94C170.5 19.852 171.724 20.308 172.612 21.22C173.524 22.132 173.98 23.38 173.98 24.964V26.728C173.98 27.016 173.848 27.16 173.584 27.16H172.576C172.312 27.16 172.18 27.016 172.18 26.728V25.036C172.18 23.884 171.88 23.008 171.28 22.408C170.704 21.784 169.864 21.472 168.76 21.472H164.548C163.444 21.472 162.604 21.784 162.028 22.408C161.452 23.032 161.164 23.908 161.164 25.036V37.816C161.164 38.944 161.452 39.82 162.028 40.444C162.604 41.068 163.444 41.38 164.548 41.38H168.76C169.864 41.38 170.704 41.08 171.28 40.48C171.88 39.856 172.18 38.968 172.18 37.816V36.124C172.18 35.836 172.312 35.692 172.576 35.692H173.584C173.848 35.692 173.98 35.836 173.98 36.124V37.888C173.98 39.472 173.524 40.72 172.612 41.632C171.724 42.544 170.5 43 168.94 43ZM190.72 43H179.596C179.356 43 179.236 42.856 179.236 42.568V20.284C179.236 19.996 179.356 19.852 179.596 19.852H190.72C191.008 19.852 191.152 19.984 191.152 20.248V21.076C191.152 21.34 191.008 21.472 190.72 21.472H181.396C181.156 21.472 181.036 21.58 181.036 21.796V30.076C181.036 30.292 181.156 30.4 181.396 30.4H189.712C189.976 30.4 190.108 30.532 190.108 30.796V31.624C190.108 31.888 189.976 32.02 189.712 32.02H181.396C181.156 32.02 181.036 32.128 181.036 32.344V41.056C181.036 41.272 181.156 41.38 181.396 41.38H190.72C191.008 41.38 191.152 41.512 191.152 41.776V42.604C191.152 42.868 191.008 43 190.72 43ZM195.956 43H194.84C194.576 43 194.492 42.856 194.588 42.568L201.752 20.284C201.824 19.996 201.992 19.852 202.256 19.852H203.948C204.188 19.852 204.356 19.996 204.452 20.284L211.616 42.568C211.688 42.856 211.604 43 211.364 43H210.212C209.972 43 209.816 42.856 209.744 42.568L207.8 36.808H198.368L196.424 42.568C196.328 42.856 196.172 43 195.956 43ZM203.012 21.832L198.872 35.188H207.332L203.156 21.832H203.012ZM217.167 43H216.123C215.883 43 215.763 42.856 215.763 42.568V20.284C215.763 19.996 215.883 19.852 216.123 19.852H224.331C225.891 19.852 227.127 20.308 228.039 21.22C228.951 22.132 229.407 23.38 229.407 24.964V28.384C229.407 29.728 229.059 30.832 228.363 31.696C227.691 32.56 226.767 33.112 225.591 33.352V33.496L229.875 42.568C230.019 42.856 229.935 43 229.623 43H228.507C228.195 43 227.979 42.856 227.859 42.568L223.611 33.496H217.923C217.683 33.496 217.563 33.604 217.563 33.82V42.568C217.563 42.856 217.431 43 217.167 43ZM217.923 31.948H224.151C225.255 31.948 226.107 31.648 226.707 31.048C227.307 30.424 227.607 29.548 227.607 28.42V25.036C227.607 23.908 227.307 23.032 226.707 22.408C226.107 21.784 225.255 21.472 224.151 21.472H217.923C217.683 21.472 217.563 21.58 217.563 21.796V31.624C217.563 31.84 217.683 31.948 217.923 31.948ZM244.03 12.904H245.65C245.77 12.904 245.854 12.94 245.902 13.012C245.95 13.084 245.926 13.18 245.83 13.3L242.59 17.224C242.446 17.44 242.254 17.548 242.014 17.548H241.294C241.03 17.548 240.97 17.404 241.114 17.116L243.382 13.3C243.526 13.036 243.742 12.904 244.03 12.904ZM234.382 43H233.266C233.002 43 232.918 42.856 233.014 42.568L240.178 20.284C240.25 19.996 240.418 19.852 240.682 19.852H242.374C242.614 19.852 242.782 19.996 242.878 20.284L250.042 42.568C250.114 42.856 250.03 43 249.79 43H248.638C248.398 43 248.242 42.856 248.17 42.568L246.226 36.808H236.794L234.85 42.568C234.754 42.856 234.598 43 234.382 43ZM241.438 21.832L237.298 35.188H245.758L241.582 21.832H241.438Z" fill="#FF6F0A"/>
</svg>
